<?xml version="1.0" encoding="UTF-8" standalone="no"?>
<!-- Created with Inkscape (http://www.inkscape.org/) -->

<svg
   xmlns:dc="http://purl.org/dc/elements/1.1/"
   xmlns:cc="http://creativecommons.org/ns#"
   xmlns:rdf="http://www.w3.org/1999/02/22-rdf-syntax-ns#"
   xmlns:svg="http://www.w3.org/2000/svg"
   xmlns="http://www.w3.org/2000/svg"
   version="1.1"
   width="627.90997"
   height="638.22284"
   id="svg2">
  <defs
     id="defs4" />
  <metadata
     id="metadata7">
    <rdf:RDF>
      <cc:Work
         rdf:about="">
        <dc:format>image/svg+xml</dc:format>
        <dc:type
           rdf:resource="http://purl.org/dc/dcmitype/StillImage" />
        <dc:title></dc:title>
      </cc:Work>
    </rdf:RDF>
  </metadata>
  <g
     transform="translate(1.6020308,-253.36897)"
     id="layer2" />
  <g
     transform="translate(1.6020308,-253.36897)"
     id="layer1">
    <path
       d="M 297.14287,543.79077 187.30683,654.96711 47.630639,584.86221 71.142049,430.35865 225.34909,404.97511 z"
       id="path3011"
       style="fill:none" />
    <path
       d="M 522.85715,743.79076 187.57216,873.8424 -39.723063,595.15558 155.08576,292.86602 l 347.6937,91.8616 z"
       id="path3017"
       style="fill:none" />
    <path
       d="M 434.28571,723.79074 281.31045,606.74914 98.170359,666.41384 162.21157,484.75788 48.87367,329.01871 l 192.55491,4.77204 113.09341,-155.91681 54.96427,184.60525 183.23348,59.37728 -158.58513,109.32028 z"
       id="path3029"
       style="fill:none" />
    <path
       d="M 479.99999,552.36217 444.31757,724.42719 565.83168,851.36782 391.16165,870.60283 307.98387,1025.3964 235.71427,865.21932 62.793456,833.94639 192.79842,715.71647 169.10527,541.59514 321.72235,628.70215 z"
       id="path3037"
       style="fill:none" />
    <path
       d=""
       id="path3985"
       style="fill:#000000;fill-opacity:1;stroke:none" />
    <path
       d=""
       id="path3987"
       style="fill:#000000;fill-opacity:1;stroke:none" />
    <path
       d=""
       id="path3989"
       style="fill:#000000;fill-opacity:1;stroke:none" />
    <path
       d=""
       id="path3991"
       style="fill:#000000;fill-opacity:1;stroke:none" />
    <path
       d=""
       id="path3993"
       style="fill:#000000;fill-opacity:1;stroke:none" />
    <path
       d=""
       id="path3995"
       style="fill:#000000;fill-opacity:1;stroke:none" />
    <path
       d=""
       id="path3997"
       style="fill:#000000;fill-opacity:1;stroke:none" />
    <path
       d=""
       id="path3999"
       style="fill:#000000;fill-opacity:1;stroke:none" />
    <path
       d=""
       id="path4001"
       style="fill:#000000;fill-opacity:1;stroke:none" />
    <path
       d=""
       id="path4003"
       style="fill:#000000;fill-opacity:1;stroke:none" />
    <g
       transform="matrix(1.6623743,0,0,1.6623743,-308.25814,-213.51329)"
       id="g4282">
      <path
         d="m 347.85713,309.50503 -20.08196,-29.83425 35.8782,-2.47436 z"
         transform="matrix(1.1336439,0,0,1.2810587,-47.988305,-73.520196)"
         id="path4113"
         style="fill:#000000;fill-opacity:1;stroke:#000000;stroke-opacity:1" />
      <path
         d="m 422.14285,383.79075 -80.09386,-32.32922 68.04485,-53.19871 z"
         transform="matrix(1.1407293,0,0,1.1735454,-59.486366,-66.683633)"
         id="path4115"
         style="fill:#000000;fill-opacity:1;stroke:#000000;stroke-opacity:1" />
      <path
         d="m 405.71428,417.36217 -46.79945,69.87682 -37.11538,-75.46793 z"
         id="path4117"
         style="fill:#000000;fill-opacity:1;stroke:#000000;stroke-opacity:1" />
      <path
         d="m 270,405.21933 -77.03342,0.18956 38.35256,-66.80768 z"
         id="path4119"
         style="fill:#000000;fill-opacity:1;stroke:#000000;stroke-opacity:1" />
      <path
         d="M 285.71429,336.64789 238.39379,323.9684 273.0348,289.32738 z"
         transform="translate(0,15)"
         id="path4121"
         style="fill:#000000;fill-opacity:1;stroke:#000000;stroke-opacity:1" />
      <path
         d="m 322.14287,318.07647 -9.79671,39.94185 -29.6923,-28.45512 z"
         id="path4123"
         style="fill:#000000;fill-opacity:1;stroke:#000000;stroke-opacity:1" />
      <path
         d="m 324.28573,291.6479 -30.45284,19.01052 -1.23718,-35.87819 z"
         transform="matrix(1.3167641,0,0,0.70243693,-98.417235,103.17389)"
         id="path4125"
         style="fill:#000000;fill-opacity:1;stroke:#000000;stroke-opacity:1" />
      <path
         d="m 241.42858,433.07645 -36.79259,42.67079 -18.55768,-53.19871 z"
         id="path4127"
         style="fill:#000000;fill-opacity:1;stroke:#000000;stroke-opacity:1" />
      <path
         d="m 481.42858,351.64791 -41.66438,16.91208 6.1859,-44.53845 z"
         id="path4129"
         style="fill:#000000;fill-opacity:1;stroke:#000000;stroke-opacity:1" />
      <path
         d="m 424.28571,318.07648 -22.39056,-31.35852 38.35255,-3.71153 z"
         transform="translate(24.285714,22.142857)"
         id="path4131"
         style="fill:#000000;fill-opacity:1;stroke:#000000;stroke-opacity:1" />
      <path
         d="m 526.42858,443.07647 -50.86629,-16.34661 39.58973,-35.8782 z"
         id="path4133"
         style="fill:#000000;fill-opacity:1;stroke:#000000;stroke-opacity:1" />
      <path
         d="M 477.14286,538.79073 458.3782,632.48165 386.62182,569.38552 z"
         id="path4135"
         style="fill:#000000;fill-opacity:1;stroke:#000000;stroke-opacity:1" />
      <path
         d="m 304.2857,613.07648 -66.65063,-11.51924 43.30127,-51.96152 z"
         id="path4137"
         style="fill:#000000;fill-opacity:1;stroke:#000000;stroke-opacity:1" />
      <path
         d="M 345.71429,609.50504 362.4281,675.5696 296.85761,657.01191 z"
         transform="matrix(1.0013609,0,0,0.82835981,-0.44862732,104.57094)"
         id="path4139"
         style="fill:#000000;fill-opacity:1;stroke:#000000;stroke-opacity:1" />
      <path
         d="m 350,566.64788 -68.42948,-31.92079 61.85896,-43.30127 z"
         id="path4141"
         style="fill:#000000;fill-opacity:1;stroke:#000000;stroke-opacity:1" />
      <path
         d="m 237.85714,492.36219 -47.88279,33.35942 -4.94872,-58.14742 z"
         id="path4143"
         style="fill:#000000;fill-opacity:1;stroke:#000000;stroke-opacity:1" />
      <path
         d="m 290.71429,462.36219 -87.83653,-13.57327 55.67307,-69.28204 z"
         id="path4145"
         style="fill:#000000;fill-opacity:1;stroke:#000000;stroke-opacity:1" />
      <path
         d="m 286.42858,472.36219 -3.73215,57.86904 -48.24999,-32.16666 z"
         id="path4147"
         style="fill:#000000;fill-opacity:1;stroke:#000000;stroke-opacity:1" />
      <path
         d="m 252.14285,531.6479 -13.08791,58.98488 -44.53845,-40.82691 z"
         id="path4149"
         style="fill:#000000;fill-opacity:1;stroke:#000000;stroke-opacity:1" />
      <path
         d="m 447.85716,478.79075 1.30539,86.38919 -75.46793,-42.06409 z"
         id="path4151"
         style="fill:#000000;fill-opacity:1;stroke:#000000;stroke-opacity:1" />
      <path
         d="m 362.14286,555.93362 -11.7175,91.05082 -72.99357,-55.67307 z"
         id="path4153"
         style="fill:#000000;fill-opacity:1;stroke:#000000;stroke-opacity:1" />
      <path
         d="m 415.71428,610.21932 -23.1392,76.21657 -54.43588,-58.14743 z"
         transform="matrix(0.99313359,0,0,0.67437033,2.2309892,198.6147)"
         id="path4155"
         style="fill:#000000;fill-opacity:1;stroke:#000000;stroke-opacity:1" />
      <path
         d="m 499.2857,577.36221 1.00641,53.70467 -47.01281,-25.98077 z"
         transform="matrix(0.79159085,0,0,0.80425937,94.366506,112.91219)"
         id="path4157"
         style="fill:#000000;fill-opacity:1;stroke:#000000;stroke-opacity:1" />
      <path
         d="m 545.00002,478.0765 -3.80908,75.05631 -63.09613,-40.82691 z"
         id="path4159"
         style="fill:#000000;fill-opacity:1;stroke:#000000;stroke-opacity:1" />
      <path
         d="m 510.71427,543.07647 -4.72665,41.30036 -33.40384,-24.74358 z"
         id="path4161"
         style="fill:#000000;fill-opacity:1;stroke:#000000;stroke-opacity:1" />
      <path
         d="m 478.57142,439.50504 -18.68773,76.50365 -56.91024,-54.43588 z"
         id="path4163"
         style="fill:#000000;fill-opacity:1;stroke:#000000;stroke-opacity:1" />
      <path
         d="M 555.71428,447.36217 540.27334,494.84843 506.8695,457.73306 z"
         id="path4165"
         style="fill:#000000;fill-opacity:1;stroke:#000000;stroke-opacity:1" />
      <path
         d="M 338.57144,380.93362 304.5522,460.57464 252.59068,391.29261 z"
         id="path4167"
         style="fill:#000000;fill-opacity:1;stroke:#000000;stroke-opacity:1" />
      <path
         d="m 430,375.21933 -51.99085,75.73122 -39.58974,-82.891 z"
         id="path4169"
         style="fill:#000000;fill-opacity:1;stroke:#000000;stroke-opacity:1" />
      <path
         d="m 494.2857,372.3622 -23.38188,90.64239 -66.80767,-65.5705 z"
         id="path4171"
         style="fill:#000000;fill-opacity:1;stroke:#000000;stroke-opacity:1" />
      <path
         d="m 502.14287,352.3622 -77.53068,-8.09479 45.77563,-63.09614 z"
         transform="matrix(1.0026338,0,0,0.63163324,-1.2204451,129.90062)"
         id="path4173"
         style="fill:#000000;fill-opacity:1;stroke:#000000;stroke-opacity:1" />
      <path
         d="m 542.85714,395.21931 -60.3434,-8.01786 37.11538,-48.24999 z"
         transform="matrix(1.001292,0,0,0.84905298,-0.66239432,59.69616)"
         id="path4175"
         style="fill:#000000;fill-opacity:1;stroke:#000000;stroke-opacity:1" />
      <path
         d="m 561.42855,440.9336 -52.05907,-8.51511 33.40384,-40.82692 z"
         id="path4177"
         style="fill:#000000;fill-opacity:1;stroke:#000000;stroke-opacity:1" />
      <path
         d="m 446.42858,633.0765 -110.8663,18.2944 39.58974,-105.16023 z"
         id="path4179"
         style="fill:#000000;fill-opacity:1;stroke:#000000;stroke-opacity:1" />
      <path
         d="M 410.71427,520.93361 288.33746,504.44504 363.80538,406.7079 z"
         id="path4181"
         style="fill:#000000;fill-opacity:1;stroke:#000000;stroke-opacity:1" />
      <path
         d="m 309.99999,526.6479 -70.7706,-6.28343 40.82691,-58.14742 z"
         id="path4183"
         style="fill:#000000;fill-opacity:1;stroke:#000000;stroke-opacity:1" />
      <path
         d="M 318.57142,485.21933 219.97619,467.8576 284.30951,391.1525 z"
         id="path4185"
         style="fill:#000000;fill-opacity:1;stroke:#000000;stroke-opacity:1" />
      <path
         d="m 436.42858,460.21933 -120.48855,-40.43591 95.2628,-84.12818 z"
         id="path4187"
         style="fill:#000000;fill-opacity:1;stroke:#000000;stroke-opacity:1" />
      <path
         d="M 447.14285,545.93361 339.43453,515.26189 419.85117,437.31961 z"
         id="path4189"
         style="fill:#000000;fill-opacity:1;stroke:#000000;stroke-opacity:1" />
      <path
         d="m 279.28571,560.93362 -53.00915,-15.10944 39.58973,-38.35255 z"
         id="path4191"
         style="fill:#000000;fill-opacity:1;stroke:#000000;stroke-opacity:1" />
      <path
         d="m 380.71428,335.21934 -75.76372,-24.82922 59.3846,-53.1987 z"
         transform="matrix(1.3214829,0,0,0.65304943,-98.071894,116.34006)"
         id="path4193"
         style="fill:#000000;fill-opacity:1;stroke:#000000;stroke-opacity:1" />
      <path
         d="m 353.57144,366.64788 -85.24084,-16.50046 56.91024,-65.5705 z"
         id="path4195"
         style="fill:#000000;fill-opacity:1;stroke:#000000;stroke-opacity:1" />
      <path
         d="m 497.14285,545.93364 -56.05768,-10.49222 37.11537,-43.30128 z"
         id="path4197"
         style="fill:#000000;fill-opacity:1;stroke:#000000;stroke-opacity:1" />
      <path
         d="m 531.42859,583.07647 -31.77884,-3.08105 18.55768,-25.98076 z"
         transform="matrix(0.86906612,0,0,0.88140307,65.358686,65.642046)"
         id="path4199"
         style="fill:#000000;fill-opacity:1;stroke:#000000;stroke-opacity:1" />
      <path
         d="m 306.42858,636.64788 -49.01053,-13.13233 35.8782,-35.8782 z"
         id="path4201"
         style="fill:#000000;fill-opacity:1;stroke:#000000;stroke-opacity:1" />
      <path
         d="m 241.42856,540.9336 -57.4162,-5.42217 33.40384,-47.0128 z"
         transform="matrix(0.90179797,0,0,0.94695821,23.746724,25.872894)"
         id="path4203"
         style="fill:#000000;fill-opacity:1;stroke:#000000;stroke-opacity:1" />
      <path
         d="m 455.71429,584.50504 -99.62225,-6.76878 55.67307,-82.89101 z"
         id="path4205"
         style="fill:#000000;fill-opacity:1;stroke:#000000;stroke-opacity:1" />
      <path
         d="m 556.4286,502.3622 -19.49588,-1.6012 11.13461,-16.08333 z"
         id="path4207"
         style="fill:#000000;fill-opacity:1;stroke:#000000;stroke-opacity:1" />
      <path
         d="m 442.85713,342.36217 -45.79624,-14.9881 35.8782,-32.16665 z"
         transform="matrix(0.99874192,0,0,1.1199597,0.52834412,-41.098467)"
         id="path4209"
         style="fill:#000000;fill-opacity:1;stroke:#000000;stroke-opacity:1" />
      <path
         d="m 468.57144,388.07647 -59.72482,-6.94644 35.8782,-48.24998 z"
         id="path4211"
         style="fill:#000000;fill-opacity:1;stroke:#000000;stroke-opacity:1" />
      <path
         d="m 488.57143,375.21931 -22.75458,-9.71978 19.79487,-14.84615 z"
         id="path4213"
         style="fill:#000000;fill-opacity:1;stroke:#000000;stroke-opacity:1" />
      <path
         d="m 511.42857,505.93362 -35.08195,-21.174 35.87819,-19.79487 z"
         id="path4215"
         style="fill:#000000;fill-opacity:1;stroke:#000000;stroke-opacity:1" />
      <path
         d="m 250.00001,338.07647 57.54945,35.34524 -59.3846,32.16666 z"
         id="path4219"
         style="fill:#000000;fill-opacity:1;stroke:#000000;stroke-opacity:1" />
      <path
         d="m 373.75646,411.92548 a 48.487324,48.487324 0 1 1 -96.97465,0 48.487324,48.487324 0 1 1 96.97465,0 z"
         transform="translate(-22.223356,-24.243661)"
         id="path4056"
         style="fill:#ffffff;fill-opacity:1;stroke:none" />
      <path
         d="m 428.30468,548.29608 a 47.477169,47.477169 0 1 1 -94.95433,0 47.477169,47.477169 0 1 1 94.95433,0 z"
         transform="translate(-44.446712,22.223356)"
         id="path4058"
         style="fill:#ffffff;fill-opacity:1;stroke:none" />
      <path
         d="m 549.52299,447.28082 a 49.497475,49.497475 0 1 1 -98.99495,0 49.497475,49.497475 0 1 1 98.99495,0 z"
         transform="translate(-24.243661,0)"
         id="path4060"
         style="fill:#ffffff;fill-opacity:1;stroke:none" />
      <path
         d="m 331.33003,411.92547 119.198,28.28427 10.10153,-24.24366 -118.28432,-31.69419 z"
         id="path4064"
         style="fill:#f9f9f9;fill-opacity:1;stroke:none" />
      <path
         d="m 446.48742,462.4331 -92.93403,84.85281 16.16244,16.16244 98.99495,-86.87312 z"
         id="path4066"
         style="fill:#ffffff;fill-opacity:1;stroke:none" />
      <path
         d="m 290.92393,413.94577 20.20305,131.31984 20.20305,-12.12184 -22.22335,-121.2183 z"
         id="path4068"
         style="fill:#ffffff;fill-opacity:1;stroke:none" />
      <path
         d="m 338.57143,376.64789 a 25.714285,25.714285 0 1 1 -51.42857,0 25.714285,25.714285 0 1 1 51.42857,0 z"
         transform="translate(-8.5714286,10)"
         id="path4221"
         style="fill:#000000;fill-opacity:1;stroke:#000000;stroke-opacity:1" />
      <path
         d="m 381.42856,568.07648 a 27.142857,27.142857 0 1 1 -54.28571,0 27.142857,27.142857 0 1 1 54.28571,0 z"
         transform="translate(-17.142857,4.2857143)"
         id="path4223"
         style="fill:#000000;fill-opacity:1;stroke:#000000;stroke-opacity:1" />
      <path
         d="m 517.14286,439.50504 a 27.142857,27.142857 0 1 1 -54.28572,0 27.142857,27.142857 0 1 1 54.28572,0 z"
         transform="translate(-12.857143,8.5714286)"
         id="path4225"
         style="fill:#000000;fill-opacity:1;stroke:#000000;stroke-opacity:1" />
    </g>
  </g>
</svg>
